<?xml version="1.0" standalone="no"?>
<!DOCTYPE svg PUBLIC "-//W3C//DTD SVG 20010904//EN"
 "http://www.w3.org/TR/2001/REC-SVG-20010904/DTD/svg10.dtd">
<svg version="1.0" xmlns="http://www.w3.org/2000/svg"
 width="16.000000pt" height="16.000000pt" viewBox="0 0 16.000000 16.000000"
 preserveAspectRatio="xMidYMid meet">
<metadata>
Created by potrace 1.11, written by Peter Selinger 2001-2013
</metadata>
<g transform="translate(0.000000,16.000000) scale(0.006038,-0.006038)"
fill="#000000" stroke="none">
<path d="M2193 2613 c-1 -192 -138 -503 -286 -654 -80 -82 -215 -169 -261
-169 -17 0 -17 -1 -19 -150 0 -84 5 -103 50 -175 7 -11 17 -29 22 -40 6 -11
23 -41 38 -67 15 -26 55 -94 88 -153 l60 -106 103 -58 103 -59 41 81 c22 45
60 141 83 212 58 176 87 310 110 520 6 51 6 329 0 375 -2 19 -7 58 -11 85 -9
73 -48 221 -79 301 -33 82 -41 94 -42 57z"/>
<path d="M1385 1770 c-138 -21 -219 -39 -325 -70 -347 -105 -667 -290 -860
-496 -58 -63 -120 -138 -120 -147 0 -3 25 5 55 18 155 69 395 101 575 78 151
-21 238 -53 341 -129 l55 -41 100 58 99 59 129 222 129 223 2 118 1 117 -65
-1 c-36 -1 -88 -5 -116 -9z"/>
<path d="M1567 1350 c-42 -8 -84 -54 -92 -100 -8 -47 23 -111 62 -129 62 -28
140 -4 167 53 20 43 20 69 0 111 -25 53 -76 77 -137 65z"/>
<path d="M1347 1040 c-39 -7 -206 -103 -207 -118 0 -13 77 -127 120 -176 207
-240 380 -389 619 -530 165 -97 394 -182 546 -202 28 -3 58 -8 68 -10 9 -1 17
-1 17 0 0 2 -24 22 -53 44 -202 152 -367 414 -408 647 -11 64 -8 181 6 216 5
13 -17 30 -95 74 l-101 57 -242 2 c-134 0 -255 -1 -270 -4z"/>
</g>
</svg>
